<?xml version="1.0" encoding="UTF-8"?>
<svg version="1.1" xmlns="http://www.w3.org/2000/svg" width="296" height="233">
<path d="M0 0 C0 10.23 0 20.46 0 31 C-1.32 31 -2.64 31 -4 31 C-4.08636719 30.33613281 -4.17273438 29.67226563 -4.26171875 28.98828125 C-5.19214563 23.14110314 -6.1147738 19.7860503 -11 16 C-13.66660057 14.66669971 -15.74888743 14.83840541 -18.73486328 14.79467773 C-20.56174683 14.76440491 -20.56174683 14.76440491 -22.42553711 14.73352051 C-23.71081299 14.71704468 -24.99608887 14.70056885 -26.3203125 14.68359375 C-28.08652954 14.65561707 -28.08652954 14.65561707 -29.88842773 14.6270752 C-34.30053981 14.55860992 -38.71277935 14.4985684 -43.125 14.4375 C-52.98375 14.293125 -62.8425 14.14875 -73 14 C-73 41.06 -73 68.12 -73 96 C-65.36875 95.896875 -57.7375 95.79375 -49.875 95.6875 C-47.47589355 95.66260498 -45.07678711 95.63770996 -42.60498047 95.61206055 C-40.69236311 95.57975976 -38.77976346 95.5463845 -36.8671875 95.51171875 C-35.88306885 95.50547485 -34.8989502 95.49923096 -33.88500977 95.49279785 C-27.69773013 95.36340607 -22.98158333 94.76861309 -18.25 90.375 C-16.35853506 86.78121662 -15.72166179 82.97338489 -15 79 C-14.01 79 -13.02 79 -12 79 C-12 93.19 -12 107.38 -12 122 C-12.99 122 -13.98 122 -15 122 C-15.14695312 121.18015625 -15.29390625 120.3603125 -15.4453125 119.515625 C-15.66960937 118.43796875 -15.89390625 117.3603125 -16.125 116.25 C-16.33382812 115.18265625 -16.54265625 114.1153125 -16.7578125 113.015625 C-18.04423063 109.8926225 -19.16899597 108.60146608 -22.01004028 106.82452393 C-26.22830413 105.07671997 -30.8053598 105.3959361 -35.3046875 105.390625 C-36.38380402 105.37408875 -37.46292053 105.35755249 -38.57473755 105.34051514 C-42.00821654 105.29208141 -45.44125272 105.27067364 -48.875 105.25 C-51.20835555 105.22183658 -53.54169052 105.19190864 -55.875 105.16015625 C-61.58325307 105.08632366 -67.29138185 105.03465396 -73 105 C-72.93857596 113.71087759 -72.86131839 122.42143341 -72.76428509 131.13198757 C-72.71970831 135.17740799 -72.68042495 139.22273063 -72.65356445 143.26831055 C-72.62740386 147.17832144 -72.58691334 151.08795352 -72.53681374 154.99772835 C-72.52023069 156.48347292 -72.50866341 157.96928288 -72.50238609 159.45510674 C-72.46531218 167.42946746 -72.19496308 174.58531936 -69 182 C-68.67 182.99 -68.34 183.98 -68 185 C-65.52869082 186.15521502 -65.52869082 186.15521502 -63 187 C-62.67 187.33 -62.34 187.66 -62 188 C-60.31816052 188.23287008 -58.6287584 188.41264166 -56.9375 188.5625 C-56.01839844 188.64628906 -55.09929687 188.73007813 -54.15234375 188.81640625 C-53.44207031 188.87699219 -52.73179687 188.93757812 -52 189 C-52 190.32 -52 191.64 -52 193 C-71.47 193 -90.94 193 -111 193 C-111 191.68 -111 190.36 -111 189 C-110.12988281 188.96132813 -110.12988281 188.96132813 -109.2421875 188.921875 C-103.79933519 188.5266844 -100.17927322 187.79050362 -96 184 C-91.09028936 176.63176994 -91.43732638 169.48664822 -91.49829102 160.86669922 C-91.49450333 159.33832299 -91.48899959 157.80995021 -91.48191833 156.28158569 C-91.4680073 152.14940968 -91.47910157 148.01765207 -91.49562955 143.88549948 C-91.50952241 139.55347493 -91.50301535 135.22147362 -91.49949646 130.88943481 C-91.49679826 123.61811613 -91.51023831 116.3469629 -91.53344727 109.07568359 C-91.56007459 100.67541866 -91.56179631 92.27542991 -91.5500589 83.87513721 C-91.53927263 75.78277173 -91.54547356 67.69050592 -91.55961418 59.59814835 C-91.5653646 56.15888226 -91.56529879 52.71968934 -91.56054878 49.28042221 C-91.55576945 45.23046984 -91.56592007 41.18081922 -91.58750343 37.13092422 C-91.59305773 35.6466702 -91.59354906 34.1623871 -91.58855057 32.6781311 C-91.58257433 30.64876653 -91.59696846 28.61937268 -91.61231995 26.59005737 C-91.61474984 25.45558104 -91.61717974 24.3211047 -91.61968327 23.15225029 C-92.05969788 19.50519493 -93.0869995 17.12377951 -95 14 C-100.04378039 10.36847812 -104.92343218 9.04720897 -111 8 C-111 7.01 -111 6.02 -111 5 C-109.95224899 4.99413376 -108.90449799 4.98826752 -107.82499695 4.98222351 C-97.86794205 4.92458355 -87.91109696 4.8516139 -77.95425701 4.76428509 C-72.83744114 4.71988196 -67.72069942 4.68056297 -62.60375977 4.65356445 C-57.64984973 4.62722735 -52.69622985 4.58662 -47.74250221 4.53681374 C-45.86867747 4.52034764 -43.99480279 4.50870915 -42.12091637 4.50238609 C-27.95834762 4.44984396 -13.70579695 0 0 0 Z " fill="#0249AB" transform="translate(282,15)"/>
<path d="M0 0 C0 10.23 0 20.46 0 31 C-0.66 31.33 -1.32 31.66 -2 32 C-2.66 31.67 -3.32 31.34 -4 31 C-4.34111929 29.2623325 -4.5986412 27.50787232 -4.8125 25.75 C-5.65471101 20.67699461 -6.68937155 18.10766237 -11 15 C-14.43646542 13.39458836 -17.19186266 12.74102592 -20.97387695 12.68115234 C-22.41480461 12.65134781 -22.41480461 12.65134781 -23.88484192 12.62094116 C-24.9089769 12.60938995 -25.93311188 12.59783875 -26.98828125 12.5859375 C-28.04661667 12.56657135 -29.10495209 12.5472052 -30.19535828 12.5272522 C-33.56765748 12.46758752 -36.93999106 12.42112307 -40.3125 12.375 C-42.60222823 12.33680819 -44.89194228 12.29775576 -47.18164062 12.2578125 C-52.78763431 12.16189674 -58.39371376 12.07681089 -64 12 C-63.93946552 31.7148095 -63.86196561 51.42948275 -63.76428509 71.14414406 C-63.71932527 80.29807 -63.67991102 89.45195703 -63.65356445 98.60595703 C-63.63058589 106.58486491 -63.59718944 114.56364964 -63.55129844 122.54245985 C-63.52736429 126.76693827 -63.50863678 130.99129471 -63.50238609 135.21583939 C-63.49633609 139.19348032 -63.47633944 143.17080913 -63.44572449 147.1483345 C-63.43694289 148.60676913 -63.43322194 150.06524454 -63.43499184 151.52370453 C-63.43664802 153.51849399 -63.41815703 155.51326957 -63.39872742 157.50796509 C-63.39411845 158.6233346 -63.38950949 159.73870411 -63.38476086 160.8878727 C-62.93675699 164.51153933 -61.8992441 166.89325968 -60 170 C-54.99470657 173.63129131 -51.11916919 174.57058462 -45 175 C-45 175.99 -45 176.98 -45 178 C-63.15 178 -81.3 178 -100 178 C-100 177.01 -100 176.02 -100 175 C-99.34773438 174.91363281 -98.69546875 174.82726562 -98.0234375 174.73828125 C-91.86537558 173.74826834 -88.28350656 172.60476955 -84 168 C-82.06468348 164.13885907 -81.74293426 160.95831993 -81.7215271 156.66618347 C-81.71036362 155.38877289 -81.69920013 154.1113623 -81.68769836 152.79524231 C-81.68533363 151.38717681 -81.68315794 149.97911098 -81.68115234 148.57104492 C-81.67185037 147.08263608 -81.66168129 145.59423244 -81.65071106 144.10583496 C-81.6234273 140.07114678 -81.60826648 136.03649349 -81.59528303 132.00173736 C-81.57964539 127.78296266 -81.55285718 123.56425913 -81.5272522 119.34553528 C-81.48047564 111.35942795 -81.44372609 103.37330721 -81.41057932 95.38713294 C-81.37235001 86.2940384 -81.32294196 77.20101535 -81.27259517 68.10798109 C-81.16929201 49.40537306 -81.08002634 30.70272138 -81 12 C-88.75583635 12.06741136 -96.51118481 12.15737593 -104.26660156 12.26245117 C-106.900657 12.29554638 -109.53478073 12.32362538 -112.16894531 12.34643555 C-115.97229912 12.38026553 -119.77503569 12.43259604 -123.578125 12.48828125 C-125.32261932 12.49786613 -125.32261932 12.49786613 -127.10235596 12.50764465 C-138.24807392 12.70458193 -149.54227892 14.10946337 -158 22 C-163.10603148 27.930608 -164.80284051 33.29882788 -164.41015625 41.08203125 C-163.81951927 45.28399149 -162.65422138 49.10076388 -161 53 C-162.98 53.495 -162.98 53.495 -165 54 C-165.98280415 52.39805929 -166.96111717 50.79336258 -167.9375 49.1875 C-168.48277344 48.29417969 -169.02804688 47.40085938 -169.58984375 46.48046875 C-173.09940592 40.30713916 -172.94711745 33.03951297 -171.3515625 26.234375 C-167.78402659 16.29406127 -161.40221879 11.80189752 -152.16015625 7.26171875 C-144.51330439 4.20864934 -137.69633064 3.70887258 -129.54541016 3.72875977 C-127.86064575 3.72091965 -127.86064575 3.72091965 -126.1418457 3.71292114 C-123.71164973 3.70271128 -121.28143207 3.69690602 -118.85121536 3.69503975 C-114.98936161 3.69135888 -111.12776074 3.67458135 -107.26596069 3.65428162 C-97.66734044 3.60599449 -88.06868824 3.57436452 -78.4699707 3.55297852 C-70.36444715 3.5348852 -62.25918184 3.50524094 -54.153759 3.45893669 C-51.606438 3.44738193 -49.05908503 3.44135719 -46.51173782 3.44125557 C-33.59867956 3.44055408 -21.14980158 3.2255204 -8.46640015 0.64073181 C-5 0 -5 0 0 0 Z " fill="#010101" transform="translate(183,35)"/>
<path d="M0 0 C0 10.23 0 20.46 0 31 C-1.32 31 -2.64 31 -4 31 C-4.08636719 30.33613281 -4.17273438 29.67226563 -4.26171875 28.98828125 C-5.19214563 23.14110314 -6.1147738 19.7860503 -11 16 C-13.66660057 14.66669971 -15.74888743 14.83840541 -18.73486328 14.79467773 C-19.93595734 14.77473251 -21.13705139 14.75478729 -22.37454224 14.73423767 C-23.67664642 14.71752518 -24.97875061 14.70081268 -26.3203125 14.68359375 C-27.66267538 14.66302375 -29.00503179 14.64202727 -30.34738159 14.62062073 C-33.88188438 14.56540469 -37.41644557 14.51599342 -40.9510498 14.46777344 C-44.55726322 14.41755496 -48.16339172 14.36187071 -51.76953125 14.30664062 C-58.84628049 14.19906483 -65.92310584 14.09761858 -73 14 C-73 13.34 -73 12.68 -73 12 C-52.87 11.67 -32.74 11.34 -12 11 C-12.99 9.515 -12.99 9.515 -14 8 C-14.66 8 -15.32 8 -16 8 C-16 7.01 -16 6.02 -16 5 C-16.99 5.33 -17.98 5.66 -19 6 C-21.16213393 6.08952331 -23.32698411 6.1175854 -25.4909668 6.11352539 C-26.47185776 6.11374443 -26.47185776 6.11374443 -27.4725647 6.1139679 C-29.63148326 6.11327188 -31.79031528 6.10549408 -33.94921875 6.09765625 C-35.44708713 6.09579096 -36.94495611 6.09436758 -38.44282532 6.09336853 C-42.38345019 6.08955207 -46.32403814 6.0797292 -50.26464844 6.06866455 C-54.28645325 6.05843172 -58.30826404 6.0538669 -62.33007812 6.04882812 C-70.22006901 6.03810616 -78.11002991 6.02104017 -86 6 C-86 5.67 -86 5.34 -86 5 C-85.2654509 4.99413376 -84.53090179 4.98826752 -83.77409363 4.98222351 C-76.7602085 4.92367158 -69.74662379 4.85125589 -62.73304272 4.76428509 C-59.12958816 4.72006269 -55.52623429 4.68071003 -51.92260742 4.65356445 C-34.56643245 4.51891259 -16.81624137 0 0 0 Z " fill="#09479D" transform="translate(282,15)"/>
<path d="M0 0 C4.12234403 0.47565508 7.34933639 1.04428735 11 3 C11.99 3 12.98 3 14 3 C15.125 8.75 15.125 8.75 14 11 C13.89391145 13.05222739 13.8533262 15.1079371 13.84178162 17.16287231 C13.8319928 18.47822968 13.82220398 19.79358704 13.81211853 21.14880371 C13.80621392 22.61498987 13.8004035 24.08117641 13.79467773 25.54736328 C13.78510206 27.08458725 13.77509217 28.62180857 13.76467896 30.1590271 C13.73759013 34.34057657 13.71660214 38.52213737 13.69667697 42.70372629 C13.6748419 47.07064293 13.64744111 51.43752449 13.62062073 55.80441284 C13.57066024 64.07749702 13.52573389 72.35060064 13.48259836 80.62372291 C13.43325463 90.04078375 13.3783259 99.45780939 13.32291877 108.87483621 C13.20904722 128.24985814 13.10221947 147.62491327 13 167 C12.34 167 11.68 167 11 167 C10.99761165 166.20154852 10.99522329 165.40309704 10.99276257 164.58045006 C10.9336216 145.15062923 10.85807729 125.72093554 10.76428509 106.29125023 C10.71932321 96.89518734 10.67990944 87.49916239 10.65356445 78.10302734 C10.63058756 69.91317049 10.59719297 61.72343365 10.55129844 53.53367198 C10.52736205 49.19741131 10.508636 44.86126953 10.50238609 40.52494431 C10.49633711 36.44224768 10.47634412 32.35985527 10.44572449 28.27727127 C10.43694126 26.78013471 10.43322228 25.2829584 10.43499184 23.78579712 C10.43664768 21.73814455 10.41992078 19.69141598 10.39872742 17.64389038 C10.39411845 16.49902349 10.38950949 15.35415661 10.38476086 14.17459679 C9.86680412 9.90102328 8.60263999 6.2834847 5.17578125 3.5390625 C4.56089844 3.23742187 3.94601563 2.93578125 3.3125 2.625 C2.219375 2.08875 1.12625 1.5525 0 1 C0 0.67 0 0.34 0 0 Z " fill="#124891" transform="translate(180,24)"/>
<path d="M0 0 C0.33 0 0.66 0 1 0 C1 14.19 1 28.38 1 43 C0.01 43 -0.98 43 -2 43 C-2 42.01 -2 41.02 -2 40 C-1.34 40 -0.68 40 0 40 C0 26.8 0 13.6 0 0 Z " fill="#174A90" transform="translate(269,94)"/>
<path d="M0 0 C7.92 0 15.84 0 24 0 C24 0.33 24 0.66 24 1 C18.39 1 12.78 1 7 1 C7 1.66 7 2.32 7 3 C7.66 3.33 8.32 3.66 9 4 C6.03 3.67 3.06 3.34 0 3 C0 2.01 0 1.02 0 0 Z " fill="#0D499D" transform="translate(171,20)"/>
<path d="M0 0 C0.99 0.495 0.99 0.495 2 1 C2 1.66 2 2.32 2 3 C2.78375 3.28875 3.5675 3.5775 4.375 3.875 C7 5 7 5 9 7 C11.65537372 7.56520003 14.29144713 7.73788198 17 8 C17 8.66 17 9.32 17 10 C13.04 10 9.08 10 5 10 C5.33 9.01 5.66 8.02 6 7 C5.38125 6.95875 4.7625 6.9175 4.125 6.875 C3.42375 6.58625 2.7225 6.2975 2 6 C0.75 2.9375 0.75 2.9375 0 0 Z " fill="#07459F" transform="translate(212,197)"/>
</svg>
